Coordinates
version=1
nRows=6
nColumns=63
inDegrees=yes

Units are S.I. units (second, meters, Newtons, ...)
If the header above contains a line with 'inDegrees', this indicates whether rotational values are in degrees (yes) or radians (no).

endheader
time	pelvis_tilt	pelvis_list	pelvis_rotation	pelvis_tx	pelvis_ty	pelvis_tz	hip_flexion_r	hip_adduction_r	hip_rotation_r	knee_angle_r	knee_angle_r_beta	ankle_angle_r	subtalar_angle_r	mtp_angle_r	hip_flexion_l	hip_adduction_l	hip_rotation_l	knee_angle_l	knee_angle_l_beta	ankle_angle_l	subtalar_angle_l	mtp_angle_l	L5_S1_Flex_Ext	L5_S1_Lat_Bending	L5_S1_axial_rotation	L4_L5_Flex_Ext	L4_L5_Lat_Bending	L4_L5_axial_rotation	L3_L4_Flex_Ext	L3_L4_Lat_Bending	L3_L4_axial_rotation	L2_L3_Flex_Ext	L2_L3_Lat_Bending	L2_L3_axial_rotation	L1_L2_Flex_Ext	L1_L2_Lat_Bending	L1_L2_axial_rotation	L1_T12_Flex_Ext	L1_T12_Lat_Bending	L1_T12_axial_rotation	Abs_r3	Abs_r2	Abs_r1	Abs_t1	Abs_t2	neck_flexion	neck_bending	neck_rotation	arm_flex_r	arm_add_r	arm_rot_r	elbow_flex_r	pro_sup_r	wrist_flex_r	wrist_dev_r	arm_flex_l	arm_add_l	arm_rot_l	elbow_flex_l	pro_sup_l	wrist_flex_l	wrist_dev_l
      7.32000000	     -1.24091770	     -9.17307880	     97.78346217	      0.15184103	      1.00280466	      0.37138917	     -2.29678529	      2.35202237	     -2.15790683	      4.41196471	      0.07700331	     14.11238294	     -2.31796460	      0.00000000	      1.47713934	     -1.68669620	     -5.84776895	      9.89106576	      0.17263166	     21.64527797	     -5.30831270	      0.00000000	      0.26281316	      0.22156948	     -0.54227204	      0.48807031	      0.29468741	     -0.57616404	      0.43177574	      0.53872404	     -0.57616404	      0.30036916	      0.53872404	     -0.47448803	      0.24404830	      0.45182449	     -0.44059603	      0.15017144	      0.34321113	     -0.40670403	      1.87724810	      2.50643828	     -3.01595440	      0.00000000	      0.00000000	    -18.16824051	     -0.08683562	     -1.72031089	     94.79875984	    -48.38153351	     49.42048419	    136.11327362	     64.56833525	     13.49020421	     29.59590568	    111.07808315	    -71.61253989	     59.49392756	    141.78259829	     72.67941984	      8.01594819	     25.09354208
      7.34000000	     -1.14084274	     -9.50819598	     97.82391751	      0.15099283	      1.00232458	      0.37083848	     -1.98161904	      2.39079113	     -1.84412553	      4.36701548	      0.07621880	     13.83951699	     -2.95731714	      0.00000000	      1.87681125	     -1.69262460	     -5.69848946	      9.90427750	      0.17286225	     22.33511340	     -4.66375060	      0.00000000	      0.26001923	      0.25894160	     -0.77421648	      0.48288171	      0.34439233	     -0.82260501	      0.42718559	      0.62959060	     -0.82260501	      0.29717598	      0.62959060	     -0.67743942	      0.24145386	      0.52803371	     -0.62905089	      0.14857499	      0.40110054	     -0.58066236	      1.85729135	      2.92919915	     -4.30595980	      0.00000000	      0.00000000	    -19.30627876	     -0.77935926	      0.46067234	    101.65758862	    -47.75304027	     53.66100798	    136.59877504	     58.19891627	     13.25592736	     30.86077090	    126.10720073	    -73.94295972	     72.57929085	    142.70945815	     67.83297689	      8.34181777	     24.66401194
      7.36000000	     -1.07737762	     -9.75332145	     97.80222133	      0.15020965	      1.00196009	      0.37059085	     -1.69751821	      2.40833081	     -1.27237838	      4.41157946	      0.07699659	     13.40045539	     -4.01757313	      0.00000000	      2.25155785	     -1.66016705	     -5.47053925	     10.05090903	      0.17542146	     22.84692219	     -4.47802272	      0.00000000	      0.23760983	      0.30149947	     -0.95035715	      0.44126522	      0.40099430	     -1.00975447	      0.39036920	      0.73306581	     -1.00975447	      0.27156428	      0.73306581	     -0.83156250	      0.22064449	      0.61481772	     -0.77216518	      0.13577026	      0.46702268	     -0.71276786	      1.69722328	      3.41062232	     -5.28560135	      0.00000000	      0.00000000	    -20.11609823	     -1.73745427	      2.92903613	    107.39300533	    -46.98663068	     56.83486454	    137.22685925	     51.98841794	     12.30188341	     31.67424225	    140.85215747	    -75.56598991	     85.74935705	    144.12189700	     63.60365690	      7.76346336	     23.60589817
      7.38000000	     -1.01066841	     -9.91135989	     97.77305416	      0.14959329	      1.00145472	      0.37072546	     -1.48870517	      2.46645890	     -0.48474175	      4.43781318	      0.07745445	     12.78652372	     -5.51638526	      0.00000000	      2.61071110	     -1.61382192	     -4.86567135	     10.32985833	      0.18029004	     22.97827473	     -5.29565725	      0.00000000	      0.21111861	      0.33917490	     -1.04689424	      0.39206838	      0.45110261	     -1.11232513	      0.34684677	      0.82466984	     -1.11232513	      0.24128746	      0.82466984	     -0.91603246	      0.19604475	      0.69164545	     -0.85060157	      0.12063318	      0.52538192	     -0.78517068	      1.50799915	      3.83681427	     -5.82251169	      0.00000000	      0.00000000	    -20.37480105	     -2.70523191	      4.94226123	    111.55129982	    -46.45434849	     59.00754573	    137.86368698	     45.23362603	     10.86615861	     32.07768502	    151.75880790	    -76.16959931	     95.28290010	    145.87860002	     59.78003383	      6.71636554	     22.29458751
      7.40000000	     -1.22993077	     -9.82360600	     97.77911229	      0.14926757	      1.00098452	      0.37074249	     -1.58044769	      2.27325962	      0.15985147	      4.51099341	      0.07873169	     12.53006640	     -6.70901575	      0.00000000	      2.72418683	     -1.33846986	     -4.27009576	     10.77027550	      0.18797677	     22.90186939	     -6.19250052	      0.00000000	      0.18266256	      0.32601973	     -1.02252225	      0.33922263	      0.43360625	     -1.08642989	      0.30009631	      0.79268438	     -1.08642989	      0.20876503	      0.79268438	     -0.89470696	      0.16962045	      0.66481944	     -0.83079932	      0.10437338	      0.50500457	     -0.76689168	      1.30474036	      3.68800044	     -5.68696197	      0.00000000	      0.00000000	    -20.66658123	     -2.94076892	      5.94948770	    114.01866029	    -46.61280709	     60.71326960	    138.47035393	     36.86563628	      9.08939065	     32.29583746	    153.82634819	    -75.53345507	     96.57324848	    147.28960781	     56.62118999	      5.66951228	     20.70342781
      7.42000000	     -1.75846156	     -9.63607098	     97.91869659	      0.14991977	      1.00046431	      0.37067717	     -1.91557088	      1.87625375	      0.77656609	      4.42328756	      0.07720093	     12.35710658	     -8.07026254	      0.00000000	      2.74805878	     -0.82046209	     -3.56621013	     11.30413622	      0.19729440	     22.47437002	     -7.35526318	      0.00000000	      0.16709546	      0.23191038	     -1.03517292	      0.31031297	      0.30844081	     -1.09987123	      0.27452113	      0.56386690	     -1.09987123	      0.19097340	      0.56386690	     -0.90577631	      0.15516484	      0.47291165	     -0.84107800	      0.09547834	      0.35922918	     -0.77637969	      1.19354614	      2.62341660	     -5.75732125	      0.00000000	      0.00000000	    -20.71991759	     -2.46061719	      5.56655973	    113.16487752	    -47.15846994	     60.54875426	    139.15171492	     29.04941027	      7.62391397	     32.43552814	    153.29368268	    -73.72094639	     95.95499519	    148.24109893	     54.42763399	      4.00134723	     18.55087494
